<svg xmlns="http://www.w3.org/2000/svg" width="28" height="28" fill="none"><path fill="none" d="M0-.773h28v28H0z"/><path fill="none" d="M16.48 16.39h-.02c-.2-.2-.2-.51 0-.71.19-.2.5-.2.7 0v.03l-.68.68Zm7.2 5.81h-.03l-.68.68v.03c.2.2.51.2.71 0 .2-.2.2-.51 0-.71Z"/><path stroke="#000" stroke-linecap="round" d="m16.81 16.04 6.52 6.52"/><path fill="none" d="M11.66 17.89c3.87 0 7-3.14 7-7 0-3.87-3.13-7-7-7-3.86 0-7 3.13-7 7 0 3.86 3.14 7 7 7Z"/><path stroke="#000" d="M18.66 10.89c0-3.87-3.13-7-7-7-3.86 0-7 3.13-7 7 0 3.86 3.14 7 7 7 3.87 0 7-3.14 7-7Z"/></svg>