<svg width="34" height="34" fill="none" xmlns="http://www.w3.org/2000/svg"><defs><clipPath id="a"><path transform="translate(0 -.573)" fill="#fff" fill-opacity="0" d="M0 0h34v34H0z"/></clipPath></defs><path fill="none" d="M0-.573h34v34H0z"/><g clip-path="url(#a)"><path d="M16.59 5.54c-4.49 0-8.71.34-10.95.82-1.5.34-2.79 1.36-3.06 2.92-.27 1.63-.55 4.08-.55 7.14 0 3.06.28 5.44.62 7.14.27 1.5 1.56 2.59 3.06 2.93 2.38.47 6.46.81 10.95.81 4.48 0 8.56-.34 10.94-.81 1.5-.34 2.79-1.36 3.06-2.93.28-1.7.62-4.14.68-7.2 0-3.06-.34-5.51-.68-7.21-.27-1.5-1.56-2.59-3.06-2.93-2.38-.34-6.52-.68-11.01-.68Zm0 1.36c4.89 0 8.84.41 10.74.75 1.02.27 1.84.95 1.97 1.84.41 2.17.68 4.49.68 6.87-.06 2.92-.4 5.3-.68 7-.2 1.29-1.56 1.7-1.97 1.84-2.45.47-6.53.81-10.61.81-4.08 0-8.23-.27-10.61-.81-1.02-.28-1.83-.96-1.97-1.84-.54-1.91-.75-4.42-.75-6.94 0-3.13.28-5.44.55-6.86.2-1.3 1.63-1.71 1.97-1.84 2.24-.48 6.39-.82 10.68-.82Zm-3.67 4.08v10.88l9.52-5.44-9.52-5.44Zm1.36 2.32 5.43 3.12-5.43 3.13V13.3Z" fill="#FFF"/></g></svg>