<svg width="28" height="28" fill="none" xmlns="http://www.w3.org/2000/svg"><path fill="none" d="M0-.2h28v28H0z"/><path d="m14.86 21.27 3.09-3.09a.99.99 0 0 1 1.28-.12l4.42 3.08c.51.36.57 1.09.13 1.53l-.78.78c-.71.71-1.73 1.02-2.69.72-2.34-.73-6.91-2.52-10.68-6.29C5.87 14.12 4.07 9.55 3.34 7.2c-.29-.96.01-1.98.72-2.69l.78-.78c.44-.44 1.17-.37 1.53.14l3.08 4.42c.28.39.23.93-.11 1.28l-3.09 3.09 8.61 8.61Z" fill="none"/><path d="m14.86 21.27 3.09-3.09a.99.99 0 0 1 1.28-.12l4.42 3.08c.51.36.57 1.09.13 1.53l-.78.78c-.71.71-1.73 1.02-2.69.72-2.34-.73-6.91-2.52-10.68-6.29C5.87 14.12 4.07 9.55 3.34 7.2c-.29-.96.01-1.98.72-2.69l.78-.78c.44-.44 1.17-.37 1.53.14l3.08 4.42c.28.39.23.93-.11 1.28l-3.09 3.09 8.61 8.61Z" fill="#FFF" fill-rule="evenodd"/></svg>