<svg xmlns="http://www.w3.org/2000/svg" width="25" height="26" fill="none"><path fill="none" d="M0-.873h25v26H0z"/><path fill="none" d="m12.5 21.87-1.52-1.4c-5.36-4.96-8.9-8.24-8.9-12.25 0-3.28 2.52-5.85 5.73-5.85 1.81 0 3.55.86 4.69 2.22 1.13-1.36 2.87-2.22 4.68-2.22 3.21 0 5.73 2.57 5.73 5.85 0 4.01-3.54 7.29-8.9 12.26l-1.51 1.39Z"/><path stroke="#000" d="M10.98 20.47c-5.36-4.96-8.9-8.24-8.9-12.25 0-3.28 2.52-5.85 5.73-5.85 1.81 0 3.55.86 4.69 2.22 1.13-1.36 2.87-2.22 4.68-2.22 3.21 0 5.73 2.57 5.73 5.85 0 4.01-3.54 7.29-8.9 12.26l-1.51 1.39-1.52-1.4Z"/></svg>