<svg xmlns="http://www.w3.org/2000/svg" width="27" height="29" fill="none"><path fill="none" d="M0-.373h27v29H0z"/><path fill="none" d="M5.625 8.086h15.75v14.5H5.625z"/><path stroke="#000" stroke-linejoin="round" d="M5.625 8.086h15.75v14.5H5.625z"/><path fill="none" d="M9 8.58c.28 0 .5-.22.5-.5h8c0 .28.21.5.5.5.28 0 .5-.22.5-.5l-.02-.02H18c-.02-2.66-2.03-4.81-4.5-4.81-2.48 0-4.49 2.15-4.5 4.81h-.48l-.02.02c0 .28.21.5.5.5Z"/><path stroke="#000" stroke-linecap="round" stroke-linejoin="round" d="M9 8.08c0-2.67 2.01-4.83 4.5-4.83 2.48 0 4.5 2.16 4.5 4.83"/></svg>