<svg xmlns="http://www.w3.org/2000/svg" width="24" height="30" fill="none"><path stroke="#000" stroke-linecap="round" d="M21 19.27h-3.23c-1.96 0-3.79-1.34-4.91-3.58l-2.07-4.13C9.67 9.31 7.84 7.97 5.88 7.97H3"/><path stroke="#000" stroke-linecap="round" d="M21 7.97h-3.23c-1.96 0-3.79 1.48-4.91 3.97l-2.07 4.57c-1.12 2.48-2.95 3.96-4.91 3.96H3"/><path fill="none" d="m18.63 4.54-.03-.01a.497.497 0 0 1 .08-.7c.22-.17.53-.14.71.08l-.01.03-.37.3L22 7.97l-2.99 3.74.37.3.01.02c-.18.22-.49.26-.71.08a.495.495 0 0 1-.08-.7h.03l.37.29V4.25l-.37.29Z"/><path stroke="#000" stroke-linecap="round" d="m19 4.22 3 3.75-3 3.75"/><path fill="none" d="m18.63 15.79-.03-.01a.497.497 0 0 1 .08-.7c.22-.17.53-.14.71.08l-.01.03-.37.3L22 19.22l-2.99 3.74.37.3.01.02c-.18.22-.49.26-.71.08a.495.495 0 0 1-.08-.7h.03l.37.29V15.5l-.37.29Z"/><path stroke="#000" stroke-linecap="round" d="m19 15.47 3 3.75-3 3.75"/></svg>