<svg width="31" height="25" fill="none" xmlns="http://www.w3.org/2000/svg"><path d="M20.53-.3c-3.59 0-6.51 2.92-6.51 6.51 0 .22.05.43.08.64-4.44-.43-8.37-2.56-11.03-5.83a.584.584 0 0 0-.52-.23.57.57 0 0 0-.47.3c-.56.96-.89 2.07-.89 3.26 0 1.44.52 2.76 1.32 3.85-.16-.07-.33-.11-.47-.19a.617.617 0 0 0-.59.01c-.18.11-.29.31-.29.51v.08c0 2.21 1.14 4.13 2.83 5.31-.02-.01-.04 0-.06 0a.58.58 0 0 0-.55.19c-.14.16-.18.38-.12.57.67 2.09 2.38 3.68 4.5 4.26-1.69 1-3.65 1.59-5.76 1.59-.46 0-.89-.02-1.33-.07a.594.594 0 0 0-.64.39c-.1.27 0 .57.25.72 2.7 1.73 5.92 2.75 9.37 2.75 5.6 0 9.99-2.34 12.94-5.68 2.94-3.34 4.48-7.68 4.48-11.74 0-.17-.01-.33-.02-.5 1.1-.84 2.08-1.83 2.85-2.98a.6.6 0 0 0-.04-.73.597.597 0 0 0-.71-.16c-.31.14-.67.16-.99.27.42-.57.79-1.19 1.01-1.88.08-.23-.01-.49-.2-.65a.605.605 0 0 0-.68-.04c-1.03.61-2.16 1.03-3.36 1.29C23.77.43 22.24-.3 20.53-.3Zm0 1.2c1.53 0 2.91.66 3.88 1.69.14.15.36.21.56.17.78-.15 1.53-.38 2.25-.68-.42.57-.93 1.05-1.54 1.41a.603.603 0 0 0 .4 1.13c.6-.08 1.13-.32 1.7-.47-.51.55-1.07 1.05-1.68 1.5a.6.6 0 0 0-.25.52c.01.25.02.49.02.73 0 3.75-1.44 7.82-4.18 10.93-2.74 3.12-6.77 5.29-12.04 5.29-2.39 0-4.65-.53-6.69-1.46 2.53-.19 4.86-1.09 6.75-2.57.19-.16.27-.42.19-.66-.08-.24-.3-.4-.55-.41-1.98-.03-3.63-1.18-4.52-2.81h.1c.59 0 1.18-.08 1.72-.23.26-.07.44-.32.43-.59 0-.27-.2-.51-.47-.57-2.13-.43-3.73-2.17-4.1-4.33.6.21 1.22.37 1.89.39a.596.596 0 0 0 .36-1.1 5.32 5.32 0 0 1-2.37-4.43c0-.68.18-1.31.42-1.91 3 3.29 7.2 5.48 11.94 5.72a.604.604 0 0 0 .62-.73c-.09-.39-.15-.8-.15-1.22A5.3 5.3 0 0 1 20.53.9Z" fill="#FFF"/></svg>