<svg width="30" height="30" fill="none" xmlns="http://www.w3.org/2000/svg"><defs><clipPath id="a"><path transform="translate(0 -.573)" fill="#fff" fill-opacity="0" d="M0 0h30v30H0z"/></clipPath></defs><path fill="none" d="M0-.573h30v30H0z"/><g clip-path="url(#a)"><path d="M9.59 1.22c-4.3 0-7.8 3.5-7.8 7.8v10.8c0 4.3 3.5 7.8 7.8 7.8H20.4c4.3 0 7.8-3.5 7.8-7.8V9.02c0-4.3-3.5-7.8-7.8-7.8H9.59Zm0 1.2H20.4c3.65 0 6.6 2.95 6.6 6.6v10.8c0 3.65-2.95 6.6-6.6 6.6H9.59c-3.65 0-6.6-2.95-6.6-6.6V9.02c0-3.65 2.95-6.6 6.6-6.6Zm12.61 3.6c-.32 0-.63.13-.85.35-.23.23-.35.53-.35.85 0 .32.12.63.35.85.22.23.53.35.85.35.31 0 .62-.12.84-.35a1.18 1.18 0 0 0 0-1.7c-.22-.22-.53-.35-.84-.35ZM15 7.82c-3.64 0-6.61 2.96-6.61 6.6 0 3.64 2.97 6.6 6.61 6.6 3.63 0 6.6-2.96 6.6-6.6 0-3.64-2.97-6.6-6.6-6.6Zm0 1.2c2.98 0 5.4 2.41 5.4 5.4s-2.42 5.4-5.4 5.4c-2.99 0-5.41-2.41-5.41-5.4s2.42-5.4 5.41-5.4Z" fill="#FFF"/></g></svg>